<svg viewBox="0 0 24 24" fill="none" xmlns="http://www.w3.org/2000/svg">
  <!-- Animated plus symbol (first path) -->
  <g transform="rotate(0 7 5)">
    <path d="M6,6H4A1,1,0,0,1,4,4H6V2A1,1,0,0,1,8,2V4h2a1,1,0,0,1,0,2H8V8A1,1,0,0,1,6,8Z" fill="currentColor" />
    
    <!-- Continuous rotation animation -->
    <animateTransform
      attributeName="transform"
      type="rotate"
      from="0 7 5"
      to="360 7 5"
      dur="3s"
      repeatCount="indefinite"/>
  </g>
  
  <!-- Static connector paths -->
  <path d="M21,10v4a1,1,0,0,1-1,1H16a1,1,0,0,1-1-1V13H8v6h7V18a1,1,0,0,1,1-1h4a1,1,0,0,1,1,1v4a1,1,0,0,1-1,1H16a1,1,0,0,1-1-1V21H7a1,1,0,0,1-1-1V12a1,1,0,0,1,1-1h8V10a1,1,0,0,1,1-1h4A1,1,0,0,1,21,10ZM17,21h2V19H17Zm2-10H17v2h2Z" fill="currentColor" />
</svg>