<svg width="17" height="17" viewBox="0 0 17 17" fill="none" xmlns="http://www.w3.org/2000/svg">
	<path
		d="M15.68 15.8597H11.68C11.5805 15.8597 11.5 15.7792 11.5 15.6797V8.6797C11.5 8.5802 11.5805 8.4997 11.68 8.4997H13.5V2.8597H11.68V2.4997H13.68C13.7795 2.4997 13.86 2.5802 13.86 2.6797V8.4997H15.68C15.7795 8.4997 15.86 8.5802 15.86 8.6797V15.6797C15.86 15.7792 15.7795 15.8597 15.68 15.8597ZM11.86 15.4997H15.4995V8.8597H11.86V15.4997ZM2.68 15.8597C1.478 15.8597 0.5 14.8817 0.5 13.6797C0.5 12.4777 1.478 11.4997 2.68 11.4997C3.8215 11.4997 4.761 12.3817 4.8525 13.4997H10.18V13.8602H4.8525C4.761 14.9782 3.8215 15.8597 2.68 15.8597ZM2.68 11.8597C1.6765 11.8597 0.86 12.6762 0.86 13.6797C0.86 14.6832 1.6765 15.4997 2.68 15.4997C3.6835 15.4997 4.5 14.6832 4.5 13.6797C4.5 12.6762 3.6835 11.8597 2.68 11.8597ZM2.86 10.4297H2.5V2.6797C2.5 2.5802 2.5805 2.4997 2.68 2.4997H7V0.679699C7 0.613199 7.0365 0.552199 7.095 0.521199C7.1535 0.490199 7.225 0.493199 7.28 0.530199L10.28 2.5302C10.33 2.5632 10.36 2.6192 10.36 2.6797C10.36 2.7402 10.33 2.7962 10.2795 2.8292L7.2795 4.8292C7.2245 4.8662 7.153 4.8697 7.0945 4.8382C7.0365 4.8072 7 4.7462 7 4.6797V2.8597H2.86V10.4297ZM7.36 1.0162V4.3432L9.8555 2.6797L7.36 1.0162Z"
		fill="currentColor" stroke="currentColor" />
</svg>
	