<svg width="20" height="18" viewBox="0 0 20 18" fill="none" xmlns="http://www.w3.org/2000/svg">
    <path fill-rule="evenodd" clip-rule="evenodd"
        d="M17 0V1L15 0.999984V17L17 17V18L15 18V18H14L14 18L12 18V17L14 17V0.999984L12 1V0H17ZM20 3V15H16V13H18V5H16V3H20ZM13 3V15H0V3H13ZM8.4 4.2H7V11C7 11.625 6.96094 12.0156 6.93164 12.3916L6.9278 12.4417L6.92409 12.4917C6.9102 12.6834 6.9 12.8764 6.9 13.1H8.3V12.2C8.66913 12.8403 9.36131 13.2249 10.1 13.2C10.7597 13.2096 11.3869 12.9145 11.8 12.4C12.3357 11.6714 12.6484 10.8029 12.7 9.9C12.7 8 11.7 6.7 10.2 6.7C9.49253 6.70311 8.82697 7.0359 8.4 7.6V4.2ZM5.6 7.6C5.06071 7.02393 4.28589 6.72876 3.5 6.8C2.70368 6.77278 1.91315 6.94463 1.2 7.3L1.6 8.3C2.12803 8.02255 2.70584 7.85261 3.3 7.8C3.68256 7.75835 4.06338 7.8924 4.33549 8.16451C4.6076 8.43662 4.74165 8.81744 4.7 9.2V9.3H3.7C3.08523 9.26621 2.47058 9.36865 1.9 9.6C1.23191 9.8883 0.82738 10.576 0.9 11.3C0.893559 11.8152 1.10944 12.3082 1.49241 12.6529C1.87539 12.9976 2.38832 13.1605 2.9 13.1C3.62248 13.1387 4.32278 12.8438 4.8 12.3V13H6.1C6.01371 12.4713 5.98021 11.9353 6 11.4V9.6C6.09371 8.90737 5.9529 8.20331 5.6 7.6ZM4.6 10V11.2C4.31637 11.7182 3.78919 12.0571 3.2 12.1C2.9562 12.1181 2.71659 12.0292 2.54372 11.8563C2.37084 11.6834 2.28186 11.4438 2.3 11.2C2.3 10.5 2.8 10.1 4 10H4.6ZM9.8 7.8C10.6 7.8 11.2 8.6 11.2 9.9C11.2 11.2 10.7 12 9.9 12C9.24835 11.9859 8.66367 11.5961 8.4 11V8.8C8.6791 8.26127 9.19987 7.88929 9.8 7.8Z"
        fill="currentColor" />
</svg>