<?xml version="1.0" encoding="UTF-8" standalone="no"?>
<svg
    width="256"
    height="256"
    viewBox="0 0 256 256"
    fill="none"
    version="1.1"
    id="svg4"
    xmlns="http://www.w3.org/2000/svg"
    xmlns:svg="http://www.w3.org/2000/svg">
    <defs id="defs4" />
    <path
        d="m 40.695693,24.399567 q -18.814851,0 -18.814851,23.680099 v 59.200254 q 0,20.72007 -18.814851,20.72007 18.814851,0 18.814851,20.72009 v 59.20026 q 0,23.68009 18.814851,23.68009"
        fill="none"
        stroke="#fc5b05"
        stroke-width="11.9485"
        stroke-linecap="round"
        id="path1-9"
        style="stroke-width:19.0577;stroke-dasharray:none" />
    <path
        d="m 215.3043,24.399567 q 18.81487,0 18.81487,23.6801 v 59.200263 q 0,20.72006 18.81484,20.72006 -18.81484,0 -18.81484,20.72009 v 59.20026 q 0,23.68009 -18.81487,23.68009"
        fill="none"
        stroke="#fc5b05"
        stroke-width="11.9485"
        stroke-linecap="round"
        id="path2-0"
        style="stroke-width:19.0577;stroke-dasharray:none" />
    <path
        d="M 64.324459,78.591988 H 94.12536 c 29.80087,0 52.97937,23.715192 52.97937,54.206152 0,30.49095 -23.1785,54.20615 -52.97937,54.20615 H 64.324459 Z"
        fill="none"
        stroke="#0057ae"
        stroke-width="13.9147"
        stroke-linejoin="round"
        id="path3-5"
        style="stroke-width:19.0577;stroke-dasharray:none" />
    <path
        d="m 191.41314,76.801597 v 81.449653 c 0,20.36243 -13.36541,30.54363 -28.40149,30.54363"
        fill="none"
        stroke="#0057ae"
        stroke-width="13.9147"
        stroke-linecap="round"
        stroke-linejoin="round"
        id="path4-6"
        style="stroke-width:19.0577;stroke-dasharray:none" />
    <ellipse
        cx="191.4888"
        cy="56.949535"
        fill="#fc5b05"
        id="circle4-3"
        rx="7.6164804"
        ry="8.6244764"
        style="stroke-width:19.0577;stroke-dasharray:none" />
</svg>